<?xml version="1.0" encoding="UTF-8" standalone="no"?>
<!-- Created with Inkscape (http://www.inkscape.org/) -->

<svg
   width="6.8791695mm"
   height="6.0854111mm"
   viewBox="0 0 6.8791695 6.0854111"
   version="1.1"
   id="svg8"
   inkscape:version="1.2.2 (732a01da63, 2022-12-09)"
   sodipodi:docname="audio.svg"
   xmlns:inkscape="http://www.inkscape.org/namespaces/inkscape"
   xmlns:sodipodi="http://sodipodi.sourceforge.net/DTD/sodipodi-0.dtd"
   xmlns="http://www.w3.org/2000/svg"
   xmlns:svg="http://www.w3.org/2000/svg"
   xmlns:rdf="http://www.w3.org/1999/02/22-rdf-syntax-ns#"
   xmlns:cc="http://creativecommons.org/ns#"
   xmlns:dc="http://purl.org/dc/elements/1.1/">
  <defs
     id="defs2" />
  <sodipodi:namedview
     id="base"
     pagecolor="#ffffff"
     bordercolor="#666666"
     borderopacity="1.0"
     inkscape:pageopacity="0.0"
     inkscape:pageshadow="2"
     inkscape:zoom="22.4"
     inkscape:cx="14.464286"
     inkscape:cy="-1.6071429"
     inkscape:document-units="mm"
     inkscape:current-layer="g891"
     showgrid="false"
     fit-margin-top="0"
     fit-margin-left="0"
     fit-margin-right="0"
     fit-margin-bottom="0"
     inkscape:window-width="3840"
     inkscape:window-height="2066"
     inkscape:window-x="-11"
     inkscape:window-y="-11"
     inkscape:window-maximized="1"
     inkscape:showpageshadow="2"
     inkscape:pagecheckerboard="0"
     inkscape:deskcolor="#d1d1d1" />
  <metadata
     id="metadata5">
    <rdf:RDF>
      <cc:Work
         rdf:about="">
        <dc:format>image/svg+xml</dc:format>
        <dc:type
           rdf:resource="http://purl.org/dc/dcmitype/StillImage" />
      </cc:Work>
    </rdf:RDF>
  </metadata>
  <g
     inkscape:label="Calque 1"
     inkscape:groupmode="layer"
     id="layer1"
     transform="translate(-349.9809,-153.93671)">
    <g
       style="clip-rule:evenodd;fill:#404040;fill-opacity:1;fill-rule:evenodd;image-rendering:optimizeQuality;shape-rendering:geometricPrecision;text-rendering:geometricPrecision"
       id="g891"
       transform="matrix(0.26458333,0,0,0.26458333,272.36487,69.005457)">
      <g
         aria-label="?"
         style="font-style:normal;font-variant:normal;font-weight:normal;font-stretch:normal;font-size:371.883px;line-height:0;font-family:'Arial Rounded MT Bold';-inkscape-font-specification:'Arial Rounded MT Bold, ';letter-spacing:0px;word-spacing:0px;fill:#000000;fill-opacity:1;stroke:none;stroke-width:1.39456"
         id="text816"
         transform="matrix(4.8585896,0,0,4.8585896,-386.62733,-682.4523)" />
      <path
         id="path815"
         d="m 296.35193,321.00001 c -1.65623,0 -3,1.34374 -3,3 v 16.99998 c 0,1.65626 1.34377,3 3,3 h 20.00001 c 1.65627,0 3,-1.34374 3,-3 v -13.99998 c 0,-1.65626 -1.34373,-3 -3,-3 h -12 c 0,-1.65626 -1.34373,-3 -3,-3 z m 0,4.99998 h 20.00001 c 0.55079,0 0.99999,0.44923 0.99999,1.00002 v 13.99998 c 0,0.55079 -0.4492,1.00002 -0.99999,1.00002 h -20.00001 c -0.55079,0 -0.99999,-0.44923 -0.99999,-1.00002 v -13.99998 c 0,-0.55079 0.4492,-1.00002 0.99999,-1.00002 z"
         inkscape:connector-curvature="0"
         style="fill:#404040;fill-opacity:1;stroke-width:0.999999" />
      <path
         id="path833"
         d="m 310.97473,327.14155 c -0.10658,0 -0.86589,0.1493 -7.08964,1.31539 -0.0503,0 -0.28157,0.059 -0.40905,0.16781 -0.12586,0.10054 -0.19163,0.23547 -0.21733,0.39391 -0.10393,0.41491 0.22715,7.89282 -0.0839,8.24341 -0.13418,0.14929 -0.37115,0.19276 -0.55487,0.22602 -1.09497,0.192 -1.82389,0.29253 -2.34256,0.78705 -0.89385,0.87223 -0.43079,2.39414 0.88755,2.64147 0.49365,0.0915 1.42182,-0.034 1.93451,-0.31673 0.45177,-0.23244 0.79374,-0.65041 0.92157,-1.20525 0.1096,-0.47607 0.0756,-0.14664 0.0756,-7.30775 0,-0.35112 0.0979,-0.44255 0.40902,-0.5096 0,0 5.41496,-1.01257 5.66524,-1.05517 0.35037,-0.0586 0.51799,0.034 0.51799,0.37569 0,4.8545 0.0586,4.7596 -0.13342,4.9793 -0.13417,0.14929 -0.29405,0.19162 -0.47694,0.22526 -1.09553,0.192 -1.75699,0.22564 -2.27565,0.71996 -0.65628,0.64037 -0.64702,1.65638 0.0839,2.26991 0.54311,0.41405 1.15309,0.51628 1.90049,0.37882 0.85115,-0.15911 1.48611,-0.62944 1.68125,-1.46558 0.0881,-0.38136 0.0586,0.18293 0.0586,-10.3256 0,-0.35376 -0.20107,-0.56156 -0.55234,-0.53726 z"
         inkscape:connector-curvature="0"
         style="font-style:normal;font-variant:normal;font-weight:normal;font-stretch:normal;font-size:371.883px;line-height:0;font-family:'Arial Rounded MT Bold';-inkscape-font-specification:'Arial Rounded MT Bold, ';letter-spacing:0px;word-spacing:0px;clip-rule:evenodd;fill:#404040;fill-opacity:1;fill-rule:evenodd;stroke:none;stroke-width:0.837135;image-rendering:optimizeQuality;shape-rendering:geometricPrecision;text-rendering:geometricPrecision" />
    </g>
  </g>
</svg>
