<?xml version="1.0" encoding="UTF-8" standalone="no"?>
<!-- Created with Inkscape (http://www.inkscape.org/) -->

<svg
   xmlns:dc="http://purl.org/dc/elements/1.1/"
   xmlns:cc="http://creativecommons.org/ns#"
   xmlns:rdf="http://www.w3.org/1999/02/22-rdf-syntax-ns#"
   xmlns:svg="http://www.w3.org/2000/svg"
   xmlns="http://www.w3.org/2000/svg"
   xmlns:sodipodi="http://sodipodi.sourceforge.net/DTD/sodipodi-0.dtd"
   xmlns:inkscape="http://www.inkscape.org/namespaces/inkscape"
   width="135.37671mm"
   height="135.37671mm"
   viewBox="0 0 135.37671 135.37671"
   version="1.1"
   id="svg8"
   inkscape:version="0.92.3 (2405546, 2018-03-11)"
   sodipodi:docname="audio.svg">
  <defs
     id="defs2" />
  <sodipodi:namedview
     id="base"
     pagecolor="#ffffff"
     bordercolor="#666666"
     borderopacity="1.0"
     inkscape:pageopacity="0.0"
     inkscape:pageshadow="2"
     inkscape:zoom="2.8"
     inkscape:cx="301.16529"
     inkscape:cy="275.68428"
     inkscape:document-units="mm"
     inkscape:current-layer="text816"
     showgrid="false"
     fit-margin-top="0"
     fit-margin-left="0"
     fit-margin-right="0"
     fit-margin-bottom="0"
     inkscape:window-width="3840"
     inkscape:window-height="2066"
     inkscape:window-x="-11"
     inkscape:window-y="-11"
     inkscape:window-maximized="1" />
  <metadata
     id="metadata5">
    <rdf:RDF>
      <cc:Work
         rdf:about="">
        <dc:format>image/svg+xml</dc:format>
        <dc:type
           rdf:resource="http://purl.org/dc/dcmitype/StillImage" />
        <dc:title></dc:title>
      </cc:Work>
    </rdf:RDF>
  </metadata>
  <g
     inkscape:label="Calque 1"
     inkscape:groupmode="layer"
     id="layer1"
     transform="translate(-257.13105,-69.005455)">
    <g
       style="clip-rule:evenodd;fill:#404040;fill-opacity:1;fill-rule:evenodd;image-rendering:optimizeQuality;shape-rendering:geometricPrecision;text-rendering:geometricPrecision"
       id="g891"
       transform="matrix(0.26458333,0,0,0.26458333,272.36487,69.005457)">
      <path
         id="path880"
         d="m 71.1,0 h 190.92 c 5.22,0 9.85,2.5 12.77,6.38 L 394.7,136.11 c 2.81,3.05 4.21,6.92 4.21,10.78 L 399,440.56 c 0,19.47 -8.02,37.23 -20.9,50.14 l -0.09,0.08 c -12.9,12.87 -30.66,20.88 -50.11,20.88 H 71.1 c -19.54,0 -37.33,-8.01 -50.22,-20.9 C 8.01,477.89 0,460.1 0,440.56 V 71.1 C 0,51.54 8,33.75 20.87,20.87 33.75,8 51.54,0 71.1,0 Z m 199.98,49.14 v 54.21 c 1.07,13.59 5.77,24.22 13.99,31.24 8.63,7.37 21.65,11.52 38.95,11.83 l 36.93,-0.05 z m 96.01,129.11 -43.31,-0.05 c -25.2,-0.4 -45.08,-7.2 -59.39,-19.43 -14.91,-12.76 -23.34,-30.81 -25.07,-53.11 l -0.15,-2.22 V 31.91 H 71.1 c -10.77,0 -20.58,4.42 -27.68,11.51 -7.09,7.1 -11.51,16.91 -11.51,27.68 v 369.46 c 0,10.76 4.43,20.56 11.52,27.65 7.11,7.12 16.92,11.53 27.67,11.53 h 256.8 c 10.78,0 20.58,-4.4 27.65,-11.48 7.13,-7.12 11.54,-16.93 11.54,-27.7 z"
         inkscape:connector-curvature="0"
         style="fill:#404040;fill-opacity:1;fill-rule:nonzero"
         sodipodi:nodetypes="ssccccccssssscsccccccccccccscsscsscsc" />
      <g
         aria-label="?"
         style="font-style:normal;font-variant:normal;font-weight:normal;font-stretch:normal;font-size:371.88265991px;line-height:0;font-family:'Arial Rounded MT Bold';-inkscape-font-specification:'Arial Rounded MT Bold, ';letter-spacing:0px;word-spacing:0px;fill:#000000;fill-opacity:1;stroke:none;stroke-width:1.39455998"
         id="text816"
         transform="matrix(4.8585896,0,0,4.8585896,-386.62733,-682.4523)">
        <path
           id="path833"
           d="m 136.27402,181.29964 c -0.39522,0 -3.206,0.55395 -26.24898,4.87032 -0.18033,0 -1.04203,0.22461 -1.51488,0.6209 -0.46433,0.37362 -0.71161,0.87142 -0.80339,1.45852 -0.38442,1.53572 0.8401,29.22237 -0.29911,30.52032 -0.4978,0.55395 -1.37537,0.71376 -2.05318,0.83794 -4.05387,0.71161 -6.752771,1.0835 -8.673021,2.91261 -3.30934,3.22932 -1.59458,8.86426 3.286,9.77995 1.829121,0.33799 5.264361,-0.12094 7.162361,-1.17204 1.67135,-0.86062 2.93852,-2.4066 3.41192,-4.46236 0.40709,-1.76249 0.28183,-0.54423 0.28183,-27.05636 0,-1.30022 0.3639,-1.63939 1.51488,-1.88829 0,0 20.0481,-3.74893 20.97491,-3.90669 1.29795,-0.22676 1.91863,0.12418 1.91863,1.38898 0,17.97343 0.22784,17.62205 -0.49456,18.43548 -0.4978,0.55287 -1.08879,0.70945 -1.7667,0.83363 -4.05603,0.7116 -6.50528,0.83578 -8.42553,2.66521 -2.42917,2.3714 -2.39645,6.13243 0.30343,8.40383 2.01139,1.53357 4.26951,1.91107 7.03645,1.40215 3.15157,-0.5885 5.50245,-2.33015 6.22474,-5.42611 0.32719,-1.41122 0.22137,0.67705 0.20841,-38.22961 0,-1.31122 -0.74616,-2.07919 -2.04454,-1.98806 z"
           inkscape:connector-curvature="0"
           style="stroke-width:3.09941268;fill:#404040;fill-opacity:1" />
      </g>
    </g>
  </g>
</svg>
