<?xml version="1.0" encoding="UTF-8" standalone="no"?>
<!-- Created with Inkscape (http://www.inkscape.org/) -->

<svg
   xmlns:dc="http://purl.org/dc/elements/1.1/"
   xmlns:cc="http://creativecommons.org/ns#"
   xmlns:rdf="http://www.w3.org/1999/02/22-rdf-syntax-ns#"
   xmlns:svg="http://www.w3.org/2000/svg"
   xmlns="http://www.w3.org/2000/svg"
   xmlns:sodipodi="http://sodipodi.sourceforge.net/DTD/sodipodi-0.dtd"
   xmlns:inkscape="http://www.inkscape.org/namespaces/inkscape"
   width="6.8791699mm"
   height="6.8791699mm"
   viewBox="0 0 6.8791699 6.8791699"
   version="1.1"
   id="svg8"
   inkscape:version="0.92.3 (2405546, 2018-03-11)"
   sodipodi:docname="folder.svg">
  <defs
     id="defs2" />
  <sodipodi:namedview
     id="base"
     pagecolor="#ffffff"
     bordercolor="#666666"
     borderopacity="1.0"
     inkscape:pageopacity="0.0"
     inkscape:pageshadow="2"
     inkscape:zoom="22.4"
     inkscape:cx="28.464022"
     inkscape:cy="3.8808414"
     inkscape:document-units="mm"
     inkscape:current-layer="layer1"
     showgrid="false"
     fit-margin-top="-3.6082248e-016"
     fit-margin-left="0"
     fit-margin-right="0"
     fit-margin-bottom="0"
     inkscape:window-width="3840"
     inkscape:window-height="2066"
     inkscape:window-x="-11"
     inkscape:window-y="-11"
     inkscape:window-maximized="1" />
  <metadata
     id="metadata5">
    <rdf:RDF>
      <cc:Work
         rdf:about="">
        <dc:format>image/svg+xml</dc:format>
        <dc:type
           rdf:resource="http://purl.org/dc/dcmitype/StillImage" />
        <dc:title></dc:title>
      </cc:Work>
    </rdf:RDF>
  </metadata>
  <g
     inkscape:label="Calque 1"
     inkscape:groupmode="layer"
     id="layer1"
     transform="translate(-134.8997,-126.09806)">
    <path
       id="path815"
       d="m 135.69345,126.50209 c -0.43821,0 -0.79375,0.35553 -0.79375,0.79375 v 4.49791 c 0,0.43822 0.35554,0.79375 0.79375,0.79375 h 5.29167 c 0.43822,0 0.79375,-0.35553 0.79375,-0.79375 v -3.70416 c 0,-0.43822 -0.35553,-0.79375 -0.79375,-0.79375 h -3.175 c 0,-0.43822 -0.35553,-0.79375 -0.79375,-0.79375 z m 0,1.32291 h 5.29167 c 0.14573,0 0.26458,0.11886 0.26458,0.26459 v 3.70416 c 0,0.14573 -0.11885,0.26459 -0.26458,0.26459 h -5.29167 c -0.14573,0 -0.26458,-0.11886 -0.26458,-0.26459 v -3.70416 c 0,-0.14573 0.11885,-0.26459 0.26458,-0.26459 z"
       inkscape:connector-curvature="0"
       style="fill:#404040;fill-opacity:1;stroke-width:0.26458332" />
  </g>
</svg>
