<?xml version="1.0" encoding="UTF-8" standalone="no"?>
<!-- Created with Inkscape (http://www.inkscape.org/) -->

<svg
   xmlns:dc="http://purl.org/dc/elements/1.1/"
   xmlns:cc="http://creativecommons.org/ns#"
   xmlns:rdf="http://www.w3.org/1999/02/22-rdf-syntax-ns#"
   xmlns:svg="http://www.w3.org/2000/svg"
   xmlns="http://www.w3.org/2000/svg"
   xmlns:sodipodi="http://sodipodi.sourceforge.net/DTD/sodipodi-0.dtd"
   xmlns:inkscape="http://www.inkscape.org/namespaces/inkscape"
   width="135.37671mm"
   height="135.37671mm"
   viewBox="0 0 135.37671 135.37671"
   version="1.1"
   id="svg8"
   inkscape:version="0.92.3 (2405546, 2018-03-11)"
   sodipodi:docname="font.svg">
  <defs
     id="defs2" />
  <sodipodi:namedview
     id="base"
     pagecolor="#ffffff"
     bordercolor="#666666"
     borderopacity="1.0"
     inkscape:pageopacity="0.0"
     inkscape:pageshadow="2"
     inkscape:zoom="2.8"
     inkscape:cx="301.16529"
     inkscape:cy="275.68428"
     inkscape:document-units="mm"
     inkscape:current-layer="text816"
     showgrid="false"
     fit-margin-top="0"
     fit-margin-left="0"
     fit-margin-right="0"
     fit-margin-bottom="0"
     inkscape:window-width="3840"
     inkscape:window-height="2066"
     inkscape:window-x="-11"
     inkscape:window-y="-11"
     inkscape:window-maximized="1" />
  <metadata
     id="metadata5">
    <rdf:RDF>
      <cc:Work
         rdf:about="">
        <dc:format>image/svg+xml</dc:format>
        <dc:type
           rdf:resource="http://purl.org/dc/dcmitype/StillImage" />
        <dc:title></dc:title>
      </cc:Work>
    </rdf:RDF>
  </metadata>
  <g
     inkscape:label="Calque 1"
     inkscape:groupmode="layer"
     id="layer1"
     transform="translate(-257.13105,-69.005455)">
    <g
       style="clip-rule:evenodd;fill:#404040;fill-opacity:1;fill-rule:evenodd;image-rendering:optimizeQuality;shape-rendering:geometricPrecision;text-rendering:geometricPrecision"
       id="g891"
       transform="matrix(0.26458333,0,0,0.26458333,272.36487,69.005457)">
      <path
         id="path880"
         d="m 71.1,0 h 190.92 c 5.22,0 9.85,2.5 12.77,6.38 L 394.7,136.11 c 2.81,3.05 4.21,6.92 4.21,10.78 L 399,440.56 c 0,19.47 -8.02,37.23 -20.9,50.14 l -0.09,0.08 c -12.9,12.87 -30.66,20.88 -50.11,20.88 H 71.1 c -19.54,0 -37.33,-8.01 -50.22,-20.9 C 8.01,477.89 0,460.1 0,440.56 V 71.1 C 0,51.54 8,33.75 20.87,20.87 33.75,8 51.54,0 71.1,0 Z m 199.98,49.14 v 54.21 c 1.07,13.59 5.77,24.22 13.99,31.24 8.63,7.37 21.65,11.52 38.95,11.83 l 36.93,-0.05 z m 96.01,129.11 -43.31,-0.05 c -25.2,-0.4 -45.08,-7.2 -59.39,-19.43 -14.91,-12.76 -23.34,-30.81 -25.07,-53.11 l -0.15,-2.22 V 31.91 H 71.1 c -10.77,0 -20.58,4.42 -27.68,11.51 -7.09,7.1 -11.51,16.91 -11.51,27.68 v 369.46 c 0,10.76 4.43,20.56 11.52,27.65 7.11,7.12 16.92,11.53 27.67,11.53 h 256.8 c 10.78,0 20.58,-4.4 27.65,-11.48 7.13,-7.12 11.54,-16.93 11.54,-27.7 z"
         inkscape:connector-curvature="0"
         style="fill:#404040;fill-opacity:1;fill-rule:nonzero"
         sodipodi:nodetypes="ssccccccssssscsccccccccccccscsscsscsc" />
      <g
         aria-label="?"
         style="font-style:normal;font-variant:normal;font-weight:normal;font-stretch:normal;font-size:371.88265991px;line-height:0;font-family:'Arial Rounded MT Bold';-inkscape-font-specification:'Arial Rounded MT Bold, ';letter-spacing:0px;word-spacing:0px;fill:#000000;fill-opacity:1;stroke:none;stroke-width:1.39455998"
         id="text816"
         transform="matrix(4.8585896,0,0,4.8585896,-386.62733,-682.4523)">
        <g
           aria-label="A"
           style="font-style:normal;font-variant:normal;font-weight:normal;font-stretch:normal;font-size:40px;line-height:1.25;font-family:'Arial Rounded MT Bold';-inkscape-font-specification:'Arial Rounded MT Bold, ';letter-spacing:0px;word-spacing:0px;fill:#404040;fill-opacity:1;stroke:none"
           id="text821"
           transform="matrix(1.3752206,0,0,1.3752206,-29.863792,-43.01492)">
          <path
             d="m 107.79724,171.27496 -1.36719,-3.59375 H 94.789429 l -1.367188,3.67188 q -0.800781,2.14844 -1.367187,2.91015 -0.566407,0.74219 -1.855469,0.74219 -1.09375,0 -1.933594,-0.80078 -0.839844,-0.80078 -0.839844,-1.81641 0,-0.58593 0.195313,-1.21093 0.195312,-0.625 0.644531,-1.73828 l 7.324219,-18.59375 q 0.3125,-0.80079 0.742187,-1.91407 0.449219,-1.13281 0.9375,-1.875 0.507813,-0.74218 1.308594,-1.1914 0.820313,-0.46875 2.011719,-0.46875 1.21094,0 2.01172,0.46875 0.82031,0.44922 1.30859,1.17187 0.50781,0.72266 0.83985,1.5625 0.35156,0.82031 0.8789,2.20703 l 7.48047,18.47657 q 0.87891,2.10937 0.87891,3.0664 0,0.9961 -0.83985,1.83594 -0.82031,0.82031 -1.99218,0.82031 -0.6836,0 -1.17188,-0.2539 -0.48828,-0.23438 -0.82031,-0.64454 -0.33203,-0.42968 -0.72266,-1.28906 -0.37109,-0.8789 -0.64453,-1.54297 z m -11.484374,-7.94922 h 8.554684 l -4.3164,-11.8164 z"
             id="path830"
             inkscape:connector-curvature="0"
             style="fill:#404040;fill-opacity:1" />
        </g>
        <g
           aria-label="a"
           style="font-style:normal;font-variant:normal;font-weight:normal;font-stretch:normal;font-size:40px;line-height:1.25;font-family:Roundo;-inkscape-font-specification:Roundo;letter-spacing:0px;word-spacing:0px;fill:#000000;fill-opacity:1;stroke:none"
           id="text825"
           transform="matrix(1.3752206,0,0,1.3752206,-53.214975,-87.070625)">
          <path
             d="m 134.89265,227.40219 q -2.65625,0 -4.55078,-1.875 -1.875,-1.89453 -1.875,-4.55078 0,-2.65625 1.875,-4.55078 1.89453,-1.89453 4.55078,-1.89453 2.65625,0 4.55079,1.89453 1.89453,1.89453 1.89453,4.66797 -0.11719,2.63672 -1.89453,4.43359 -1.89454,1.875 -4.55079,1.875 z m 8.57422,4.25781 q 0.87891,0 1.50391,-0.625 0.625,-0.625 0.625,-1.5039 v -17.12891 q 0,-0.87891 -0.625,-1.48437 -0.625,-0.625 -1.50391,-0.625 -0.8789,0 -1.5039,0.625 -0.625,0.60546 -0.625,1.52343 -2.8125,-2.14843 -6.44532,-2.14843 -4.39453,0 -7.53906,3.125 v 0.0195 q -3.14453,3.14453 -3.14453,7.53906 0,4.41406 3.14453,7.55859 3.14453,3.125 7.53906,3.125 3.63282,0 6.44532,-2.16797 0,0.91797 0.625,1.54297 0.625,0.625 1.5039,0.625 z"
             id="path827"
             inkscape:connector-curvature="0"
             style="fill:#404040;fill-opacity:1" />
        </g>
      </g>
    </g>
  </g>
</svg>
