<?xml version="1.0" encoding="UTF-8" standalone="no"?>
<!-- Created with Inkscape (http://www.inkscape.org/) -->

<svg
   xmlns:dc="http://purl.org/dc/elements/1.1/"
   xmlns:cc="http://creativecommons.org/ns#"
   xmlns:rdf="http://www.w3.org/1999/02/22-rdf-syntax-ns#"
   xmlns:svg="http://www.w3.org/2000/svg"
   xmlns="http://www.w3.org/2000/svg"
   xmlns:sodipodi="http://sodipodi.sourceforge.net/DTD/sodipodi-0.dtd"
   xmlns:inkscape="http://www.inkscape.org/namespaces/inkscape"
   width="135.37671mm"
   height="135.37671mm"
   viewBox="0 0 135.37671 135.37671"
   version="1.1"
   id="svg8"
   inkscape:version="0.92.3 (2405546, 2018-03-11)"
   sodipodi:docname="image.svg">
  <defs
     id="defs2" />
  <sodipodi:namedview
     id="base"
     pagecolor="#ffffff"
     bordercolor="#666666"
     borderopacity="1.0"
     inkscape:pageopacity="0.0"
     inkscape:pageshadow="2"
     inkscape:zoom="1.4"
     inkscape:cx="30.252801"
     inkscape:cy="404.22791"
     inkscape:document-units="mm"
     inkscape:current-layer="text816"
     showgrid="false"
     fit-margin-top="0"
     fit-margin-left="0"
     fit-margin-right="0"
     fit-margin-bottom="0"
     inkscape:window-width="3840"
     inkscape:window-height="2066"
     inkscape:window-x="-11"
     inkscape:window-y="-11"
     inkscape:window-maximized="1">
    <inkscape:grid
       type="xygrid"
       id="grid844" />
  </sodipodi:namedview>
  <metadata
     id="metadata5">
    <rdf:RDF>
      <cc:Work
         rdf:about="">
        <dc:format>image/svg+xml</dc:format>
        <dc:type
           rdf:resource="http://purl.org/dc/dcmitype/StillImage" />
        <dc:title></dc:title>
      </cc:Work>
    </rdf:RDF>
  </metadata>
  <g
     inkscape:label="Calque 1"
     inkscape:groupmode="layer"
     id="layer1"
     transform="translate(-257.13105,-69.005455)">
    <g
       style="clip-rule:evenodd;fill:#404040;fill-opacity:1;fill-rule:evenodd;image-rendering:optimizeQuality;shape-rendering:geometricPrecision;text-rendering:geometricPrecision"
       id="g891"
       transform="matrix(0.26458333,0,0,0.26458333,272.36487,69.005457)">
      <path
         id="path880"
         d="m 71.1,0 h 190.92 c 5.22,0 9.85,2.5 12.77,6.38 L 394.7,136.11 c 2.81,3.05 4.21,6.92 4.21,10.78 L 399,440.56 c 0,19.47 -8.02,37.23 -20.9,50.14 l -0.09,0.08 c -12.9,12.87 -30.66,20.88 -50.11,20.88 H 71.1 c -19.54,0 -37.33,-8.01 -50.22,-20.9 C 8.01,477.89 0,460.1 0,440.56 V 71.1 C 0,51.54 8,33.75 20.87,20.87 33.75,8 51.54,0 71.1,0 Z m 199.98,49.14 v 54.21 c 1.07,13.59 5.77,24.22 13.99,31.24 8.63,7.37 21.65,11.52 38.95,11.83 l 36.93,-0.05 z m 96.01,129.11 -43.31,-0.05 c -25.2,-0.4 -45.08,-7.2 -59.39,-19.43 -14.91,-12.76 -23.34,-30.81 -25.07,-53.11 l -0.15,-2.22 V 31.91 H 71.1 c -10.77,0 -20.58,4.42 -27.68,11.51 -7.09,7.1 -11.51,16.91 -11.51,27.68 v 369.46 c 0,10.76 4.43,20.56 11.52,27.65 7.11,7.12 16.92,11.53 27.67,11.53 h 256.8 c 10.78,0 20.58,-4.4 27.65,-11.48 7.13,-7.12 11.54,-16.93 11.54,-27.7 z"
         inkscape:connector-curvature="0"
         style="fill:#404040;fill-opacity:1;fill-rule:nonzero"
         sodipodi:nodetypes="ssccccccssssscsccccccccccccscsscsscsc" />
      <g
         aria-label="?"
         style="font-style:normal;font-variant:normal;font-weight:normal;font-stretch:normal;font-size:371.88265991px;line-height:0;font-family:'Arial Rounded MT Bold';-inkscape-font-specification:'Arial Rounded MT Bold, ';letter-spacing:0px;word-spacing:0px;fill:#000000;fill-opacity:1;stroke:none;stroke-width:1.39455998"
         id="text816"
         transform="matrix(4.8585896,0,0,4.8585896,-386.62733,-682.4523)">
        <path
           id="path848"
           d="m 112.81197,202.76459 -2.95395,2.82556 -16.439779,16.43977 5.907928,5.90812 13.485801,-13.48582 9.37587,9.37587 2.95417,2.82557 2.95395,-2.82557 5.26593,-5.26592 9.37587,9.37587 5.90812,-5.90812 -12.33004,-12.32983 -2.95395,-2.82555 -2.95417,2.82555 -5.26571,5.26593 -9.37587,-9.37587 z"
           inkscape:connector-curvature="0"
           style="font-style:normal;font-variant:normal;font-weight:normal;font-stretch:normal;font-size:371.88265991px;line-height:0;font-family:'Arial Rounded MT Bold';-inkscape-font-specification:'Arial Rounded MT Bold, ';letter-spacing:0px;word-spacing:0px;clip-rule:evenodd;fill:#404040;fill-opacity:1;fill-rule:evenodd;stroke:#404040;stroke-width:4.17857075;stroke-linecap:round;stroke-linejoin:round;stroke-miterlimit:4;stroke-dasharray:none;stroke-opacity:1;image-rendering:optimizeQuality;shape-rendering:geometricPrecision;text-rendering:geometricPrecision"
           sodipodi:nodetypes="ccccccccccccccccc" />
        <path
           id="path848-6"
           d="m 143.74093,186.45305 c -2.26384,0 -4.10994,1.8471 -4.10994,4.10993 0,2.26365 1.8471,4.10995 4.10994,4.10995 2.26364,0 4.10995,-1.8471 4.10995,-4.10995 0,-2.26364 -1.8471,-4.10993 -4.10995,-4.10993 z"
           inkscape:connector-curvature="0"
           style="font-style:normal;font-variant:normal;font-weight:normal;font-stretch:normal;font-size:371.88265991px;line-height:0;font-family:'Arial Rounded MT Bold';-inkscape-font-specification:'Arial Rounded MT Bold, ';letter-spacing:0px;word-spacing:0px;clip-rule:evenodd;fill:#404040;fill-opacity:1;fill-rule:evenodd;stroke:#404040;stroke-width:4.17857075;stroke-linecap:round;stroke-linejoin:round;stroke-miterlimit:4;stroke-dasharray:none;stroke-opacity:1;image-rendering:optimizeQuality;shape-rendering:geometricPrecision;text-rendering:geometricPrecision"
           sodipodi:nodetypes="sssss" />
        <rect
           style="opacity:1;fill:#404040;fill-opacity:1;stroke:#404040;stroke-width:0.26836488;stroke-linecap:round;stroke-linejoin:round;stroke-miterlimit:4;stroke-dasharray:none;stroke-opacity:1;paint-order:stroke fill markers"
           id="rect889"
           width="43.553177"
           height="13.292204"
           x="99.379494"
           y="216.597" />
      </g>
    </g>
  </g>
</svg>
