<?xml version="1.0" encoding="UTF-8" standalone="no"?>
<!-- Created with Inkscape (http://www.inkscape.org/) -->

<svg
   xmlns:dc="http://purl.org/dc/elements/1.1/"
   xmlns:cc="http://creativecommons.org/ns#"
   xmlns:rdf="http://www.w3.org/1999/02/22-rdf-syntax-ns#"
   xmlns:svg="http://www.w3.org/2000/svg"
   xmlns="http://www.w3.org/2000/svg"
   xmlns:sodipodi="http://sodipodi.sourceforge.net/DTD/sodipodi-0.dtd"
   xmlns:inkscape="http://www.inkscape.org/namespaces/inkscape"
   width="135.37671mm"
   height="135.37671mm"
   viewBox="0 0 135.37671 135.37671"
   version="1.1"
   id="svg8"
   inkscape:version="0.92.3 (2405546, 2018-03-11)"
   sodipodi:docname="unknown.svg">
  <defs
     id="defs2" />
  <sodipodi:namedview
     id="base"
     pagecolor="#ffffff"
     bordercolor="#666666"
     borderopacity="1.0"
     inkscape:pageopacity="0.0"
     inkscape:pageshadow="2"
     inkscape:zoom="1.979899"
     inkscape:cx="223.47269"
     inkscape:cy="266.23472"
     inkscape:document-units="mm"
     inkscape:current-layer="text816"
     showgrid="false"
     fit-margin-top="0"
     fit-margin-left="0"
     fit-margin-right="0"
     fit-margin-bottom="0"
     inkscape:window-width="3840"
     inkscape:window-height="2066"
     inkscape:window-x="-11"
     inkscape:window-y="-11"
     inkscape:window-maximized="1" />
  <metadata
     id="metadata5">
    <rdf:RDF>
      <cc:Work
         rdf:about="">
        <dc:format>image/svg+xml</dc:format>
        <dc:type
           rdf:resource="http://purl.org/dc/dcmitype/StillImage" />
        <dc:title></dc:title>
      </cc:Work>
    </rdf:RDF>
  </metadata>
  <g
     inkscape:label="Calque 1"
     inkscape:groupmode="layer"
     id="layer1"
     transform="translate(-257.13105,-69.005455)">
    <g
       style="clip-rule:evenodd;fill:#404040;fill-opacity:1;fill-rule:evenodd;image-rendering:optimizeQuality;shape-rendering:geometricPrecision;text-rendering:geometricPrecision"
       id="g891"
       transform="matrix(0.26458333,0,0,0.26458333,272.36487,69.005457)">
      <path
         id="path880"
         d="m 71.1,0 h 190.92 c 5.22,0 9.85,2.5 12.77,6.38 L 394.7,136.11 c 2.81,3.05 4.21,6.92 4.21,10.78 L 399,440.56 c 0,19.47 -8.02,37.23 -20.9,50.14 l -0.09,0.08 c -12.9,12.87 -30.66,20.88 -50.11,20.88 H 71.1 c -19.54,0 -37.33,-8.01 -50.22,-20.9 C 8.01,477.89 0,460.1 0,440.56 V 71.1 C 0,51.54 8,33.75 20.87,20.87 33.75,8 51.54,0 71.1,0 Z m 199.98,49.14 v 54.21 c 1.07,13.59 5.77,24.22 13.99,31.24 8.63,7.37 21.65,11.52 38.95,11.83 l 36.93,-0.05 z m 96.01,129.11 -43.31,-0.05 c -25.2,-0.4 -45.08,-7.2 -59.39,-19.43 -14.91,-12.76 -23.34,-30.81 -25.07,-53.11 l -0.15,-2.22 V 31.91 H 71.1 c -10.77,0 -20.58,4.42 -27.68,11.51 -7.09,7.1 -11.51,16.91 -11.51,27.68 v 369.46 c 0,10.76 4.43,20.56 11.52,27.65 7.11,7.12 16.92,11.53 27.67,11.53 h 256.8 c 10.78,0 20.58,-4.4 27.65,-11.48 7.13,-7.12 11.54,-16.93 11.54,-27.7 z"
         inkscape:connector-curvature="0"
         style="fill:#404040;fill-opacity:1;fill-rule:nonzero"
         sodipodi:nodetypes="ssccccccssssscsccccccccccccscsscsscsc" />
      <g
         aria-label="?"
         style="font-style:normal;font-variant:normal;font-weight:normal;font-stretch:normal;font-size:371.88265991px;line-height:0;font-family:'Arial Rounded MT Bold';-inkscape-font-specification:'Arial Rounded MT Bold, ';letter-spacing:0px;word-spacing:0px;fill:#000000;fill-opacity:1;stroke:none;stroke-width:1.39455998"
         id="text816">
        <path
           d="m 105.66496,250.48466 q 0,-17.25041 11.07658,-34.86399 11.07659,-17.79517 32.32183,-29.4165 21.24525,-11.62134 49.57225,-11.62134 26.32959,0 46.48534,9.8055 20.15575,9.62392 31.05075,26.32959 11.07658,16.70566 11.07658,36.31666 0,15.43458 -6.35542,27.05592 -6.17383,11.62133 -14.88983,20.15575 -8.53442,8.35283 -30.86917,28.327 -6.17383,5.62908 -9.98708,9.98708 -3.63167,4.17642 -5.4475,7.80808 -1.81583,3.45009 -2.90533,7.08175 -0.90792,3.45009 -2.90534,12.34767 -3.45008,18.88467 -21.60841,18.88467 -9.44234,0 -15.97934,-6.17384 -6.35541,-6.17383 -6.35541,-18.33991 0,-15.253 4.72116,-26.32959 4.72117,-11.25816 12.52925,-19.611 7.80809,-8.53441 21.06367,-20.15575 11.62133,-10.16866 16.70567,-15.253 5.26591,-5.26591 8.716,-11.62133 3.63166,-6.35542 3.63166,-13.80033 0,-14.52667 -10.895,-24.51375 -10.71341,-9.98708 -27.78225,-9.98708 -19.97416,0 -29.4165,10.16866 -9.44233,9.98709 -15.97933,29.59808 -6.17383,20.51892 -23.42425,20.51892 -10.16866,0 -17.25041,-7.08175 -6.90017,-7.26333 -6.90017,-15.61617 z m 88.61266,199.01533 q -11.07658,0 -19.42941,-7.08175 -8.17125,-7.26333 -8.17125,-20.15575 0,-11.43974 7.98966,-19.24783 7.98967,-7.80808 19.611,-7.80808 11.43975,0 19.24784,7.80808 7.80808,7.80809 7.80808,19.24783 0,12.71084 -8.17125,19.97417 -8.17125,7.26333 -18.88467,7.26333 z"
           style="fill:#404040;fill-opacity:1;stroke-width:1.39455998"
           id="path818"
           inkscape:connector-curvature="0" />
      </g>
    </g>
  </g>
</svg>
